<svg width="133" height="23" viewBox="0 0 133 23" fill="none" xmlns="http://www.w3.org/2000/svg">
<path d="M16.3769 22.1547H10.2383V13.6995H6.27153V22.1333H0V0.363894H6.27153V8.498H10.2383V0.363894H16.3769V22.1547ZM44.4769 22.2403C50.7484 22.2403 55.8676 17.1886 55.8676 11.0667C55.8676 4.81624 50.7484 0 44.4769 0C38.1167 0 34.9034 4.47376 34.1277 6.27182C34.1277 3.57472 31.3355 0.342488 28.1 0.342488H17.6401V22.1333H27.3908C31.3576 22.1333 34.1499 18.8583 34.1499 15.9899C35.0142 17.788 38.1167 22.2403 44.4769 22.2403ZM26.593 13.3999C27.5016 13.3999 28.2329 14.2561 28.2329 15.2193C28.2329 16.2468 27.5016 17.0816 26.593 17.0816H23.4905V13.3999H26.593ZM26.593 5.22295C27.5016 5.22295 28.2329 6.07917 28.2329 7.04242C28.2329 8.00567 27.5016 8.86189 26.593 8.86189H23.4905V5.22295H26.593ZM30.715 11.0667C31.4463 11.0238 32.6208 10.2104 33.0862 9.73952C32.9089 10.3175 32.9089 12.1583 33.0862 12.7363C32.5765 12.0299 31.4463 11.1737 30.715 11.0667ZM38.7594 11.0667C38.7594 8.00567 41.33 5.52263 44.5212 5.54403C47.7124 5.56544 50.2609 8.06988 50.2165 11.1523C50.1722 14.1919 47.6237 16.6321 44.499 16.6321C41.3079 16.6107 38.7594 14.1491 38.7594 11.0667ZM44.4769 15.4334C46.9146 15.4334 48.9755 13.4855 48.9755 11.0667C48.9755 8.64783 46.9146 6.72134 44.4769 6.72134C41.9727 6.72134 39.9561 8.64783 39.9561 11.0667C39.9561 13.4855 41.9727 15.4334 44.4769 15.4334ZM88.6213 8.06988C88.5105 2.80412 84.6545 0 79.9121 0C77.2971 0 74.9702 0.834816 73.3746 2.48304C71.7569 0.834816 69.43 0 66.815 0C62.0726 0 58.2166 2.80412 58.0836 8.09129V20.164C58.0836 21.2771 59.0144 22.1761 60.1668 22.1761H62.1169C62.3164 22.1761 62.4715 22.0263 62.4715 21.8336V8.1341C62.5601 5.52263 64.466 4.15267 66.815 4.15267C69.1641 4.15267 71.0921 5.52263 71.1586 8.1341V20.164C71.1586 21.2771 72.0893 22.1761 73.2417 22.1761H75.1918C75.3913 22.1761 75.5464 22.0263 75.5464 21.8336V8.1341C75.635 5.52263 77.5409 4.15267 79.8899 4.15267C82.239 4.15267 84.167 5.52263 84.2335 8.1341V20.164C84.2335 21.2771 85.1642 22.1761 86.3166 22.1761H88.2667C88.4662 22.1761 88.6213 22.0263 88.6213 21.8336V8.1341C88.6435 8.11269 88.6213 8.09129 88.6213 8.06988ZM132.699 0.363894H129.375C128.467 0.363894 127.602 0.81341 127.093 1.5412L123.414 6.80696C122.926 7.49193 121.885 7.49193 121.419 6.80696L117.741 1.5412C117.231 0.81341 116.367 0.363894 115.458 0.363894H112.134C111.935 0.363894 111.802 0.577949 111.912 0.749193L118.472 10.1462C118.937 10.8312 118.937 11.7088 118.472 12.3938L111.912 21.7694C111.802 21.9407 111.912 22.1547 112.134 22.1547H115.458C116.367 22.1547 117.231 21.7052 117.741 20.9774L121.419 15.7117C121.907 15.0267 122.949 15.0267 123.414 15.7117L127.093 20.9774C127.602 21.7052 128.467 22.1547 129.375 22.1547H132.699C132.899 22.1547 133.032 21.9407 132.921 21.7694L126.361 12.3724C125.896 11.6874 125.896 10.8098 126.361 10.1248L132.921 0.727788C133.032 0.577949 132.921 0.363894 132.699 0.363894ZM110.405 0.363894H108.455C107.458 0.363894 106.638 1.04887 106.439 1.9479C104.688 0.663571 102.516 0.0214055 100.145 0.0214055C94.3831 0 89.7515 3.853 89.7515 11.1309C89.7515 18.4088 94.4053 22.2617 100.123 22.2617C102.472 22.2617 104.644 21.6196 106.372 20.3567C106.461 21.3841 107.347 22.1761 108.433 22.1761H110.383C110.583 22.1761 110.738 22.0263 110.738 21.8336V0.684977C110.738 0.513733 110.583 0.363894 110.405 0.363894ZM100.123 18.1091C96.71 18.1091 93.9178 15.6903 93.9178 11.1309C93.9178 6.5715 96.6879 4.15267 100.123 4.15267C103.558 4.15267 106.328 6.5715 106.328 11.1309C106.328 15.6903 103.558 18.1091 100.123 18.1091Z" fill="white"/>
</svg>
